<?xml version="1.0" encoding="UTF-8"?>
<!DOCTYPE svg PUBLIC "-//W3C//DTD SVG 1.1//EN" "http://www.w3.org/Graphics/SVG/1.1/DTD/svg11.dtd">
<svg xmlns="http://www.w3.org/2000/svg" version="1.1" width="64px" height="64px" style="shape-rendering:geometricPrecision; text-rendering:geometricPrecision; image-rendering:optimizeQuality; fill-rule:evenodd; clip-rule:evenodd" xmlns:xlink="http://www.w3.org/1999/xlink">
<g><path style="opacity:1" fill="#dddada" d="M -0.5,-0.5 C 20.8333,-0.5 42.1667,-0.5 63.5,-0.5C 63.5,20.8333 63.5,42.1667 63.5,63.5C 42.1667,63.5 20.8333,63.5 -0.5,63.5C -0.5,42.1667 -0.5,20.8333 -0.5,-0.5 Z"/></g>
<g><path style="opacity:1" fill="#e2625c" d="M 24.5,0.5 C 43.3148,-1.1849 55.8148,6.8151 62,24.5C 64.1909,42.297 57.0243,54.4637 40.5,61C 21.9776,64.8224 9.14425,57.9891 2,40.5C -1.67719,20.8525 5.82281,7.51914 24.5,0.5 Z"/></g>
<g><path style="opacity:1" fill="#fefbfb" d="M 50.5,36.5 C 44.1667,36.5 37.8333,36.5 31.5,36.5C 31.5,38.5 31.5,40.5 31.5,42.5C 30.5196,46.8267 27.8529,48.3267 23.5,47C 19.3333,42.8333 15.1667,38.6667 11,34.5C 10.3333,32.5 10.3333,30.5 11,28.5C 15.1667,24.3333 19.3333,20.1667 23.5,16C 30.4101,15.2466 33.0768,18.4132 31.5,25.5C 38.6154,25.0753 45.6154,25.5753 52.5,27C 55.5336,31.0259 54.8669,34.1926 50.5,36.5 Z"/></g>
<g><path style="opacity:1" fill="#ed9c99" d="M 50.5,36.5 C 44.69,37.4896 38.69,37.8229 32.5,37.5C 32.7845,39.4147 32.4511,41.0813 31.5,42.5C 31.5,40.5 31.5,38.5 31.5,36.5C 37.8333,36.5 44.1667,36.5 50.5,36.5 Z"/></g>
</svg>
