<?xml version="1.0" encoding="UTF-8"?>
<!DOCTYPE svg PUBLIC "-//W3C//DTD SVG 1.1//EN" "http://www.w3.org/Graphics/SVG/1.1/DTD/svg11.dtd">
<svg xmlns="http://www.w3.org/2000/svg" version="1.1" width="96px" height="96px" style="shape-rendering:geometricPrecision; text-rendering:geometricPrecision; image-rendering:optimizeQuality; fill-rule:evenodd; clip-rule:evenodd" xmlns:xlink="http://www.w3.org/1999/xlink">
<g><path style="opacity:0.979" fill="#e2605a" d="M 27.5,11.5 C 40.8375,11.3334 54.1708,11.5001 67.5,12C 73.3537,12.612 78.1871,15.112 82,19.5C 83.6407,38.4099 83.9741,57.4099 83,76.5C 80.0139,80.2272 78.6805,84.5605 79,89.5C 75.3333,92.1667 71.6667,92.1667 68,89.5C 67.5045,87.5273 67.3379,85.5273 67.5,83.5C 54.1667,83.5 40.8333,83.5 27.5,83.5C 28.1474,91.0035 24.814,93.5035 17.5,91C 17,90.5 16.5,90 16,89.5C 16.3195,84.5605 14.9861,80.2272 12,76.5C 11.3333,58.1667 11.3333,39.8333 12,21.5C 15.6385,15.6898 20.8052,12.3565 27.5,11.5 Z M 23.5,27.5 C 39.5035,27.3334 55.5035,27.5001 71.5,28C 73.3333,28.5 74.5,29.6667 75,31.5C 75.6667,36.8333 75.6667,42.1667 75,47.5C 74.5,49.3333 73.3333,50.5 71.5,51C 55.5,51.6667 39.5,51.6667 23.5,51C 21.6667,50.5 20.5,49.3333 20,47.5C 19.3333,42.1667 19.3333,36.8333 20,31.5C 20.6897,29.6498 21.8564,28.3164 23.5,27.5 Z M 22.5,64.5 C 30.4863,63.998 32.4863,67.1647 28.5,74C 20.424,74.8047 18.424,71.638 22.5,64.5 Z M 66.5,64.5 C 74.4863,63.998 76.4863,67.1647 72.5,74C 64.424,74.8047 62.424,71.638 66.5,64.5 Z"/></g>
</svg>
