<?xml version="1.0" encoding="UTF-8"?>
<!DOCTYPE svg PUBLIC "-//W3C//DTD SVG 1.1//EN" "http://www.w3.org/Graphics/SVG/1.1/DTD/svg11.dtd">
<svg xmlns="http://www.w3.org/2000/svg" version="1.1" width="50px" height="50px" style="shape-rendering:geometricPrecision; text-rendering:geometricPrecision; image-rendering:optimizeQuality; fill-rule:evenodd; clip-rule:evenodd" xmlns:xlink="http://www.w3.org/1999/xlink">
<g><path style="opacity:0.962" fill="#e1615a" d="M 49.5,12.5 C 49.5,21.5 49.5,30.5 49.5,39.5C 45.8638,40.1402 42.5305,41.4735 39.5,43.5C 37.0785,43.7431 35.4118,42.7431 34.5,40.5C 29.5,39.1667 24.5,39.1667 19.5,40.5C 17.5592,43.3342 14.8926,44.1675 11.5,43C 8.22074,39.8985 4.22074,38.7318 -0.5,39.5C -0.5,29.5 -0.5,19.5 -0.5,9.5C 0.28913,9.21719 0.955796,8.71719 1.5,8C 15.8333,7.33333 30.1667,7.33333 44.5,8C 46.3617,9.36569 48.0283,10.8657 49.5,12.5 Z M 5.5,12.5 C 16.8382,12.3335 28.1716,12.5001 39.5,13C 42.8762,13.3071 44.2096,15.1405 43.5,18.5C 30.8289,18.6666 18.1623,18.4999 5.5,18C 4.24751,16.1722 4.24751,14.3388 5.5,12.5 Z M 5.5,22.5 C 10.2393,21.4071 12.2393,23.2404 11.5,28C 11.4817,32.8438 9.14839,35.6771 4.5,36.5C 4.22562,31.737 4.55896,27.0704 5.5,22.5 Z M 16.5,22.5 C 22.5,22.5 28.5,22.5 34.5,22.5C 34.5,24.5 34.5,26.5 34.5,28.5C 28.4908,28.6662 22.4908,28.4995 16.5,28C 15.2475,26.1722 15.2475,24.3388 16.5,22.5 Z M 36.5,22.5 C 38.8568,22.3367 41.1902,22.5034 43.5,23C 44.8333,24.6667 44.8333,26.3333 43.5,28C 41.1902,28.4966 38.8568,28.6633 36.5,28.5C 36.5,26.5 36.5,24.5 36.5,22.5 Z M 12.5,36.5 C 13.8333,36.5 15.1667,36.5 16.5,36.5C 16.5,37.8333 16.5,39.1667 16.5,40.5C 15.1667,40.5 13.8333,40.5 12.5,40.5C 12.5,39.1667 12.5,37.8333 12.5,36.5 Z M 37.5,36.5 C 38.8333,36.5 40.1667,36.5 41.5,36.5C 41.5,37.8333 41.5,39.1667 41.5,40.5C 40.1667,40.5 38.8333,40.5 37.5,40.5C 37.5,39.1667 37.5,37.8333 37.5,36.5 Z"/></g>
</svg>
