<?xml version="1.0" encoding="UTF-8"?>
<!DOCTYPE svg PUBLIC "-//W3C//DTD SVG 1.1//EN" "http://www.w3.org/Graphics/SVG/1.1/DTD/svg11.dtd">
<svg xmlns="http://www.w3.org/2000/svg" version="1.1" width="64px" height="64px" style="shape-rendering:geometricPrecision; text-rendering:geometricPrecision; image-rendering:optimizeQuality; fill-rule:evenodd; clip-rule:evenodd" xmlns:xlink="http://www.w3.org/1999/xlink">
<g><path style="opacity:0.94" fill="#e2605a" d="M 26.5,5.5 C 37.0526,3.66792 42.2193,8.00125 42,18.5C 39.4874,25.3405 34.654,27.8405 27.5,26C 18.5262,19.6185 18.1929,12.7852 26.5,5.5 Z"/></g>
<g><path style="opacity:0.895" fill="#e2605a" d="M 21.5,27.5 C 28.175,27.3337 34.8417,27.5004 41.5,28C 44.8566,29.5125 46.8566,32.0125 47.5,35.5C 50.8499,35.335 54.1832,35.5017 57.5,36C 59.3289,36.2735 60.8289,37.1068 62,38.5C 62.9094,44.6123 62.576,50.6123 61,56.5C 51.2413,57.1607 41.4079,57.494 31.5,57.5C 21.5921,57.494 11.7587,57.1607 2,56.5C 0.423962,50.6123 0.0906283,44.6123 1,38.5C 2.17109,37.1068 3.67109,36.2735 5.5,36C 8.81677,35.5017 12.1501,35.335 15.5,35.5C 16.3453,31.9854 18.3453,29.3187 21.5,27.5 Z M 10.5,39.5 C 11.647,43.6463 11.8136,47.9796 11,52.5C 9.06916,55.1047 7.23582,55.1047 5.5,52.5C 6.5575,52.0941 7.89083,52.0941 9.5,52.5C 9.23071,48.0685 9.56404,43.7352 10.5,39.5 Z M 20.5,39.5 C 26.2304,38.8605 29.5637,41.3605 30.5,47C 29.1343,52.3369 25.801,54.6702 20.5,54C 13.8987,49.1709 13.8987,44.3376 20.5,39.5 Z M 34.5,39.5 C 35.8124,44.0152 35.8124,48.6819 34.5,53.5C 33.2254,48.7836 33.2254,44.117 34.5,39.5 Z M 40.5,39.5 C 43.1444,42.4802 45.811,45.4802 48.5,48.5C 49.3214,45.5535 49.8214,42.5535 50,39.5C 50.3333,39.8333 50.6667,40.1667 51,40.5C 51.499,44.8206 51.6657,49.1539 51.5,53.5C 48.2549,52.2555 45.9215,49.9221 44.5,46.5C 43.675,45.6143 42.675,45.281 41.5,45.5C 41.6641,48.1873 41.4974,50.854 41,53.5C 39.2066,48.9642 39.0399,44.2975 40.5,39.5 Z M 55.5,39.5 C 56.7773,40.6936 57.4439,42.3603 57.5,44.5C 57.1667,46.1667 56.8333,47.8333 56.5,49.5C 55.513,46.2317 55.1796,42.8984 55.5,39.5 Z M 55.5,52.5 C 58.0009,52.5109 58.1676,53.1776 56,54.5C 55.5357,53.9056 55.369,53.2389 55.5,52.5 Z"/></g>
<g><path style="opacity:0.873" fill="#e26059" d="M 19.5,41.5 C 26.1633,40.3326 28.9966,42.9992 28,49.5C 25.1616,53.0349 21.9949,53.3682 18.5,50.5C 16.992,47.2313 17.3254,44.2313 19.5,41.5 Z"/></g>
</svg>
