<?xml version="1.0" encoding="UTF-8"?>
<!DOCTYPE svg PUBLIC "-//W3C//DTD SVG 1.1//EN" "http://www.w3.org/Graphics/SVG/1.1/DTD/svg11.dtd">
<svg xmlns="http://www.w3.org/2000/svg" version="1.1" width="64px" height="64px" style="shape-rendering:geometricPrecision; text-rendering:geometricPrecision; image-rendering:optimizeQuality; fill-rule:evenodd; clip-rule:evenodd" xmlns:xlink="http://www.w3.org/1999/xlink">
<g><path style="opacity:0.696" fill="#e26059" d="M 63.5,39.5 C 63.5,44.5 63.5,49.5 63.5,54.5C 62.6836,56.1436 61.3502,57.3103 59.5,58C 40.8333,58.6667 22.1667,58.6667 3.5,58C 1.64977,57.3103 0.316435,56.1436 -0.5,54.5C -0.5,49.5 -0.5,44.5 -0.5,39.5C 0.363622,38.3117 1.36362,37.1451 2.5,36C 6.54078,35.8265 10.5408,35.3265 14.5,34.5C 16.5493,29.6219 20.216,26.7886 25.5,26C 18.9205,20.1499 18.2539,13.8166 23.5,7C 33.9521,1.89575 40.6187,4.89575 43.5,16C 42.789,20.0857 40.789,23.419 37.5,26C 42.784,26.7886 46.4507,29.6219 48.5,34.5C 52.4592,35.3265 56.4592,35.8265 60.5,36C 61.6364,37.1451 62.6364,38.3117 63.5,39.5 Z M 30.5,6.5 C 41.4011,9.78598 43.0678,15.6193 35.5,24C 27.0342,25.5303 22.8676,22.0303 23,13.5C 24.211,9.66636 26.711,7.33303 30.5,6.5 Z M 21.5,29.5 C 28.175,29.3337 34.8417,29.5004 41.5,30C 43.3615,31.0283 44.6948,32.5283 45.5,34.5C 36.1667,35.8333 26.8333,35.8333 17.5,34.5C 18.5076,32.5008 19.841,30.8342 21.5,29.5 Z M 3.5,54.5 C 1.70155,49.2983 1.53488,44.2983 3,39.5C 3.5,39 4,38.5 4.5,38C 9.83333,37.3333 15.1667,37.3333 20.5,38C 17,38.8333 14.8333,41 14,44.5C 13.5045,42.5273 13.3379,40.5273 13.5,38.5C 11.8333,38.5 10.1667,38.5 8.5,38.5C 8.5,42.5 8.5,46.5 8.5,50.5C 5.05044,49.7564 3.38377,51.0897 3.5,54.5 Z M 25.5,38.5 C 34.9911,37.342 44.6578,37.1754 54.5,38C 53.6598,43.2371 53.3265,48.4038 53.5,53.5C 53.8178,54.6473 54.4844,55.4806 55.5,56C 45.1667,56.6667 34.8333,56.6667 24.5,56C 29.4208,55.3353 31.9208,52.502 32,47.5C 32.4974,50.146 32.6641,52.8127 32.5,55.5C 34.1439,55.7135 35.6439,55.3802 37,54.5C 37.6667,49.5 37.6667,44.5 37,39.5C 35.6439,38.6198 34.1439,38.2865 32.5,38.5C 32.6641,41.1873 32.4974,43.854 32,46.5C 31.9343,41.9984 29.7677,39.3317 25.5,38.5 Z M 59.5,39.5 C 60.8333,44.5 60.8333,49.5 59.5,54.5C 59.1456,49.6053 59.1456,44.6053 59.5,39.5 Z M 40.5,40.5 C 41.8118,41.1451 42.8118,42.1451 43.5,43.5C 41.8701,46.5778 41.0368,49.9111 41,53.5C 40.501,49.1794 40.3343,44.8461 40.5,40.5 Z M 20.5,43.5 C 25.8943,42.5545 27.5609,44.5545 25.5,49.5C 19.7403,51.2126 18.0736,49.2126 20.5,43.5 Z M 47.5,49.5 C 48.7498,49.4226 49.5831,48.756 50,47.5C 51.0708,53.9697 50.2375,54.6364 47.5,49.5 Z M 13.5,49.5 C 14.761,53.2501 17.4277,55.4168 21.5,56C 17.8333,56.6667 14.1667,56.6667 10.5,56C 12.9193,54.4912 13.9193,52.3245 13.5,49.5 Z"/></g>
<g><path style="opacity:0.736" fill="#e2605a" d="M 38.5,38.5 C 42.6826,37.8456 45.516,39.5123 47,43.5C 46.7913,39.5408 48.6246,37.8742 52.5,38.5C 52.5,44.1667 52.5,49.8333 52.5,55.5C 50.8008,55.6602 49.1341,55.4935 47.5,55C 46.3333,53.1667 45.1667,51.3333 44,49.5C 43.5045,51.4727 43.3379,53.4727 43.5,55.5C 41.8333,55.5 40.1667,55.5 38.5,55.5C 38.5,49.8333 38.5,44.1667 38.5,38.5 Z M 40.5,40.5 C 40.3343,44.8461 40.501,49.1794 41,53.5C 41.0368,49.9111 41.8701,46.5778 43.5,43.5C 42.8118,42.1451 41.8118,41.1451 40.5,40.5 Z M 47.5,49.5 C 50.2375,54.6364 51.0708,53.9697 50,47.5C 49.5831,48.756 48.7498,49.4226 47.5,49.5 Z"/></g>
</svg>
