<?xml version="1.0" encoding="UTF-8"?>
<!DOCTYPE svg PUBLIC "-//W3C//DTD SVG 1.1//EN" "http://www.w3.org/Graphics/SVG/1.1/DTD/svg11.dtd">
<svg xmlns="http://www.w3.org/2000/svg" version="1.1" width="96px" height="96px" style="shape-rendering:geometricPrecision; text-rendering:geometricPrecision; image-rendering:optimizeQuality; fill-rule:evenodd; clip-rule:evenodd" xmlns:xlink="http://www.w3.org/1999/xlink">
<g><path style="opacity:0.964" fill="#959595" d="M 45.5,8.5 C 47.1439,8.28649 48.6439,8.61983 50,9.5C 53.225,17.6171 56.725,25.6171 60.5,33.5C 70.0579,34.7374 79.5579,36.0707 89,37.5C 89.6667,38.5 89.6667,39.5 89,40.5C 82.1667,46.6667 75.3333,52.8333 68.5,59C 70.4943,67.6331 72.4943,76.2998 74.5,85C 73.5915,87.3193 71.9248,87.9859 69.5,87C 62.0382,83.0334 54.7049,78.8667 47.5,74.5C 40.3291,78.9197 32.9958,83.0864 25.5,87C 23.8876,87.7203 22.3876,87.5536 21,86.5C 22.3135,77.2656 24.1469,68.0989 26.5,59C 22.1667,55.3333 17.8333,51.6667 13.5,48C 10.4489,45.2857 7.78224,42.2857 5.5,39C 5.6448,38.228 5.97814,37.5613 6.5,37C 15.87,36.0886 25.2033,34.9219 34.5,33.5C 38.3679,25.2204 42.0345,16.887 45.5,8.5 Z"/></g>
</svg>
